<svg version="1.1" xmlns="http://www.w3.org/2000/svg" xmlns:xlink="http://www.w3.org/1999/xlink" width="1588" height="369"><defs/><g><g transform="translate(-134,-46) scale(1,1)"><rect fill="#C0C0C0" stroke="none" x="719" y="327" width="406.0205078125" height="85" opacity="0.2"/></g><g transform="translate(-134,-46) scale(1,1)"><rect fill="#ffffff" stroke="none" x="712" y="320" width="406.0205078125" height="85"/></g><g transform="translate(-134,-46) scale(1,1)"><path fill="none" stroke="#000000" d="M 712 320 L 1118.0205078125 320 L 1118.0205078125 405 L 712 405 L 712 320 Z Z" stroke-miterlimit="10"/></g><g transform="translate(-134,-46) scale(1,1)"><path fill="none" stroke="#000000" d="M 712 345 L 1118.0205078125 345" stroke-miterlimit="10"/></g><g transform="translate(-134,-46) scale(1,1)"><path fill="none" stroke="#000000" d="M 712 383 L 1118.0205078125 383" stroke-miterlimit="10"/></g><g transform="translate(-134,-46) scale(1,1)"><g><path fill="none" stroke="none"/><text fill="#000000" stroke="none" font-family="Arial" font-size="13px" font-style="normal" font-weight="bold" text-decoration="none" x="893.704345703125" y="339.5">CCircle</text></g></g><g transform="translate(-134,-46) scale(1,1)"><g><path fill="none" stroke="none"/><text fill="#000000" stroke="none" font-family="Arial" font-size="13px" font-style="normal" font-weight="normal" text-decoration="none" x="717" y="362.5">«get/set»-center: CPoint2D</text></g></g><g transform="translate(-134,-46) scale(1,1)"><g><path fill="none" stroke="none"/><text fill="#000000" stroke="none" font-family="Arial" font-size="13px" font-style="normal" font-weight="normal" text-decoration="none" x="717" y="377.5">«get/set»-radius: float</text></g></g><g transform="translate(-134,-46) scale(1,1)"><g><path fill="none" stroke="none"/><text fill="#000000" stroke="none" font-family="Arial" font-size="13px" font-style="normal" font-weight="normal" text-decoration="none" x="717" y="400.5">«friend»+operator&lt;&lt;(os: ostream&amp;, circle: const CCircle&amp;): ostream&amp;</text></g></g><g transform="translate(-134,-46) scale(1,1)"><rect fill="#C0C0C0" stroke="none" x="151" y="63" width="408.927734375" height="175" opacity="0.2"/></g><g transform="translate(-134,-46) scale(1,1)"><rect fill="#ffffff" stroke="none" x="144" y="56" width="408.927734375" height="175"/></g><g transform="translate(-134,-46) scale(1,1)"><path fill="none" stroke="#000000" d="M 144 56 L 552.927734375 56 L 552.927734375 231 L 144 231 L 144 56 Z Z" stroke-miterlimit="10"/></g><g transform="translate(-134,-46) scale(1,1)"><path fill="none" stroke="#000000" d="M 144 81 L 552.927734375 81" stroke-miterlimit="10"/></g><g transform="translate(-134,-46) scale(1,1)"><path fill="none" stroke="#000000" d="M 144 209 L 552.927734375 209" stroke-miterlimit="10"/></g><g transform="translate(-134,-46) scale(1,1)"><g><path fill="none" stroke="none"/><text fill="#000000" stroke="none" font-family="Arial" font-size="13px" font-style="normal" font-weight="bold" text-decoration="none" x="328.237060546875" y="75.5">CColor</text></g></g><g transform="translate(-134,-46) scale(1,1)"><g><path fill="none" stroke="none"/><text fill="#000000" stroke="none" font-family="Arial" font-size="13px" font-style="normal" font-weight="normal" text-decoration="none" x="149" y="98.5">«get/set»-red: int</text></g></g><g transform="translate(-134,-46) scale(1,1)"><g><path fill="none" stroke="none"/><text fill="#000000" stroke="none" font-family="Arial" font-size="13px" font-style="normal" font-weight="normal" text-decoration="none" x="149" y="113.5">«get/set»-green: int</text></g></g><g transform="translate(-134,-46) scale(1,1)"><g><path fill="none" stroke="none"/><text fill="#000000" stroke="none" font-family="Arial" font-size="13px" font-style="normal" font-weight="normal" text-decoration="none" x="149" y="128.5">«get/set»-blue: int</text></g></g><g transform="translate(-134,-46) scale(1,1)"><g><path fill="none" stroke="none"/><text fill="#000000" stroke="none" font-family="Arial" font-size="13px" font-style="normal" font-weight="normal" text-decoration="none" x="149" y="143.5">+RED: const CColor</text><path fill="none" stroke="#000000" d="M 149 143.5 L 266.39990234375 143.5" stroke-miterlimit="10"/></g></g><g transform="translate(-134,-46) scale(1,1)"><g><path fill="none" stroke="none"/><text fill="#000000" stroke="none" font-family="Arial" font-size="13px" font-style="normal" font-weight="normal" text-decoration="none" x="149" y="158.5">+GREEN: const CColor</text><path fill="none" stroke="#000000" d="M 149 158.5 L 285.1826171875 158.5" stroke-miterlimit="10"/></g></g><g transform="translate(-134,-46) scale(1,1)"><g><path fill="none" stroke="none"/><text fill="#000000" stroke="none" font-family="Arial" font-size="13px" font-style="normal" font-weight="normal" text-decoration="none" x="149" y="173.5">+BLUE: const CColor</text><path fill="none" stroke="#000000" d="M 149 173.5 L 272.91259765625 173.5" stroke-miterlimit="10"/></g></g><g transform="translate(-134,-46) scale(1,1)"><g><path fill="none" stroke="none"/><text fill="#000000" stroke="none" font-family="Arial" font-size="13px" font-style="normal" font-weight="normal" text-decoration="none" x="149" y="188.5">+BLACK: const CColor</text><path fill="none" stroke="#000000" d="M 149 188.5 L 281.58349609375 188.5" stroke-miterlimit="10"/></g></g><g transform="translate(-134,-46) scale(1,1)"><g><path fill="none" stroke="none"/><text fill="#000000" stroke="none" font-family="Arial" font-size="13px" font-style="normal" font-weight="normal" text-decoration="none" x="149" y="203.5">+WHITE: const CColor</text><path fill="none" stroke="#000000" d="M 149 203.5 L 280.83447265625 203.5" stroke-miterlimit="10"/></g></g><g transform="translate(-134,-46) scale(1,1)"><g><path fill="none" stroke="none"/><text fill="#000000" stroke="none" font-family="Arial" font-size="13px" font-style="normal" font-weight="normal" text-decoration="none" x="149" y="226.5">«friend»+operator&lt;&lt;(os : ostream&amp;, color : const CColor&amp;): ostream&amp;</text></g></g><g transform="translate(-134,-46) scale(1,1)"><rect fill="#C0C0C0" stroke="none" x="151" y="319" width="408" height="85" opacity="0.2"/></g><g transform="translate(-134,-46) scale(1,1)"><rect fill="#ffffff" stroke="none" x="144" y="312" width="408" height="85"/></g><g transform="translate(-134,-46) scale(1,1)"><path fill="none" stroke="#000000" d="M 144 312 L 552 312 L 552 397 L 144 397 L 144 312 Z Z" stroke-miterlimit="10"/></g><g transform="translate(-134,-46) scale(1,1)"><path fill="none" stroke="#000000" d="M 144 337 L 552 337" stroke-miterlimit="10"/></g><g transform="translate(-134,-46) scale(1,1)"><path fill="none" stroke="#000000" d="M 144 375 L 552 375" stroke-miterlimit="10"/></g><g transform="translate(-134,-46) scale(1,1)"><g><path fill="none" stroke="none"/><text fill="#000000" stroke="none" font-family="Arial" font-size="13px" font-style="normal" font-weight="bold" text-decoration="none" x="320.181396484375" y="331.5">CPoint2D</text></g></g><g transform="translate(-134,-46) scale(1,1)"><g><path fill="none" stroke="none"/><text fill="#000000" stroke="none" font-family="Arial" font-size="13px" font-style="normal" font-weight="normal" text-decoration="none" x="149" y="354.5">«get/set»-x: int</text></g></g><g transform="translate(-134,-46) scale(1,1)"><g><path fill="none" stroke="none"/><text fill="#000000" stroke="none" font-family="Arial" font-size="13px" font-style="normal" font-weight="normal" text-decoration="none" x="149" y="369.5">«get/set»-y: int</text></g></g><g transform="translate(-134,-46) scale(1,1)"><g><path fill="none" stroke="none"/><text fill="#000000" stroke="none" font-family="Arial" font-size="13px" font-style="normal" font-weight="normal" text-decoration="none" x="149" y="392.5">«friend»+operator&lt;&lt;(os: ostream&amp;, d: const CPoint2D&amp;): ostream&amp;</text></g></g><g transform="translate(-134,-46) scale(1,1)"><rect fill="#C0C0C0" stroke="none" x="727" y="71" width="411.13037109375" height="100" opacity="0.2"/></g><g transform="translate(-134,-46) scale(1,1)"><rect fill="#ffffff" stroke="none" x="720" y="64" width="411.13037109375" height="100"/></g><g transform="translate(-134,-46) scale(1,1)"><path fill="none" stroke="#000000" d="M 720 64 L 1131.13037109375 64 L 1131.13037109375 164 L 720 164 L 720 64 Z Z" stroke-miterlimit="10"/></g><g transform="translate(-134,-46) scale(1,1)"><path fill="none" stroke="#000000" d="M 720 89 L 1131.13037109375 89" stroke-miterlimit="10"/></g><g transform="translate(-134,-46) scale(1,1)"><path fill="none" stroke="#000000" d="M 720 142 L 1131.13037109375 142" stroke-miterlimit="10"/></g><g transform="translate(-134,-46) scale(1,1)"><g><path fill="none" stroke="none"/><text fill="#000000" stroke="none" font-family="Arial" font-size="13px" font-style="normal" font-weight="bold" text-decoration="none" x="893.7666015625" y="83.5">CShape2D</text></g></g><g transform="translate(-134,-46) scale(1,1)"><g><path fill="none" stroke="none"/><text fill="#000000" stroke="none" font-family="Arial" font-size="13px" font-style="normal" font-weight="normal" text-decoration="none" x="725" y="106.5">«get/set»-isFilled: bool</text></g></g><g transform="translate(-134,-46) scale(1,1)"><g><path fill="none" stroke="none"/><text fill="#000000" stroke="none" font-family="Arial" font-size="13px" font-style="normal" font-weight="normal" text-decoration="none" x="725" y="121.5">«get/set»-color: CColor</text></g></g><g transform="translate(-134,-46) scale(1,1)"><g><path fill="none" stroke="none"/><text fill="#000000" stroke="none" font-family="Arial" font-size="13px" font-style="normal" font-weight="normal" text-decoration="none" x="725" y="136.5">«get/set»-lineType: LineType</text></g></g><g transform="translate(-134,-46) scale(1,1)"><g><path fill="none" stroke="none"/><text fill="#000000" stroke="none" font-family="Arial" font-size="13px" font-style="normal" font-weight="normal" text-decoration="none" x="725" y="159.5">«friend»+operator&lt;&lt;(os: ostream&amp;, d: const CShaped2D&amp;): ostream&amp;</text></g></g><g transform="translate(-134,-46) scale(1,1)"><path fill="none" stroke="#000000" d="M 931 320 L 931 164" stroke-miterlimit="10"/></g><g transform="translate(-134,-46) scale(1,1)"><path fill="#FFFFFF" stroke="none" d="M 939.419035512032 184.3253497152483 L 931 164 L 922.580964487968 184.3253497152483"/></g><g transform="translate(-134,-46) scale(1,1)"><path fill="none" stroke="#000000" d="M 939.419035512032 184.3253497152483 L 931 164 L 922.580964487968 184.3253497152483 L 939.419035512032 184.3253497152483" stroke-miterlimit="10"/></g><g transform="translate(-134,-46) scale(1,1)"><rect fill="#C0C0C0" stroke="none" x="1311" y="71" width="408" height="113" opacity="0.2"/></g><g transform="translate(-134,-46) scale(1,1)"><rect fill="#ffffff" stroke="none" x="1304" y="64" width="408" height="113"/></g><g transform="translate(-134,-46) scale(1,1)"><path fill="none" stroke="#000000" d="M 1304 64 L 1712 64 L 1712 177 L 1304 177 L 1304 64 Z Z" stroke-miterlimit="10"/></g><g transform="translate(-134,-46) scale(1,1)"><path fill="none" stroke="#000000" d="M 1304 155 L 1712 155" stroke-miterlimit="10"/></g><g transform="translate(-134,-46) scale(1,1)"><path fill="none" stroke="#000000" d="M 1304 102 L 1712 102" stroke-miterlimit="10"/></g><g transform="translate(-134,-46) scale(1,1)"><g><path fill="none" stroke="none"/><text fill="#000000" stroke="none" font-family="Arial" font-size="13px" font-style="normal" font-weight="normal" text-decoration="none" x="1464.635986328125" y="81.5">«enumeration»</text></g></g><g transform="translate(-134,-46) scale(1,1)"><g><path fill="none" stroke="none"/><text fill="#000000" stroke="none" font-family="Arial" font-size="13px" font-style="normal" font-weight="bold" text-decoration="none" x="1481.619140625" y="96.5">LineType</text></g></g><g transform="translate(-134,-46) scale(1,1)"><g><path fill="none" stroke="none"/><text fill="#000000" stroke="none" font-family="Arial" font-size="13px" font-style="normal" font-weight="normal" text-decoration="none" x="1309" y="172.5">+operator&lt;&lt;(os: ostream&amp;, x: LineType): ostream&amp;</text></g></g><g transform="translate(-134,-46) scale(1,1)"><g><path fill="none" stroke="none"/><text fill="#000000" stroke="none" font-family="Arial" font-size="13px" font-style="normal" font-weight="normal" text-decoration="none" x="1309" y="119.5">SOLID</text></g></g><g transform="translate(-134,-46) scale(1,1)"><g><path fill="none" stroke="none"/><text fill="#000000" stroke="none" font-family="Arial" font-size="13px" font-style="normal" font-weight="normal" text-decoration="none" x="1309" y="134.5">DASHED</text></g></g><g transform="translate(-134,-46) scale(1,1)"><g><path fill="none" stroke="none"/><text fill="#000000" stroke="none" font-family="Arial" font-size="13px" font-style="normal" font-weight="normal" text-decoration="none" x="1309" y="149.5">DOTTED</text></g></g><g transform="translate(-134,-46) scale(1,1)"><path fill="none" stroke="#000000" d="M 1131 120 L 1304 120" stroke-miterlimit="10"/></g><g transform="translate(-134,-46) scale(1,1)"><path fill="#FFFFFF" stroke="none" d="M 1283.6746502847518 128.41903551203197 L 1304 120 L 1283.6746502847516 111.58096448796803"/></g><g transform="translate(-134,-46) scale(1,1)"><path fill="none" stroke="#000000" d="M 1283.6746502847518 128.41903551203197 L 1304 120 L 1283.6746502847516 111.58096448796803 L 1283.6746502847518 128.41903551203197" stroke-miterlimit="10"/></g><g transform="translate(-134,-46) scale(1,1)"><g><path fill="none" stroke="none"/><text fill="#000000" stroke="none" font-family="Arial" font-size="13px" font-style="normal" font-weight="normal" text-decoration="none" x="1186.5" y="138.5">+using</text></g></g><g transform="translate(-134,-46) scale(1,1)"><path fill="none" stroke="#000000" d="M 553 120 L 720 120" stroke-miterlimit="10"/></g><g transform="translate(-134,-46) scale(1,1)"><path fill="#FFFFFF" stroke="none" d="M 709.8373251423759 124.20951775601598 L 720 120 L 709.8373251423758 115.79048224398402 L 698 120"/></g><g transform="translate(-134,-46) scale(1,1)"><path fill="none" stroke="#000000" d="M 709.8373251423759 124.20951775601598 L 720 120 L 709.8373251423758 115.79048224398402 L 698 120 L 709.8373251423759 124.20951775601598" stroke-miterlimit="10"/></g><g transform="translate(-134,-46) scale(1,1)"><path fill="none" stroke="#000000" d="M 552 354 L 712 354" stroke-miterlimit="10"/></g><g transform="translate(-134,-46) scale(1,1)"><path fill="#FFFFFF" stroke="none" d="M 701.8373251423759 358.209517756016 L 712 354 L 701.8373251423758 349.790482243984 L 690 354"/></g><g transform="translate(-134,-46) scale(1,1)"><path fill="none" stroke="#000000" d="M 701.8373251423759 358.209517756016 L 712 354 L 701.8373251423758 349.790482243984 L 690 354 L 701.8373251423759 358.209517756016" stroke-miterlimit="10"/></g></g></svg>